<svg class="marks"  width="440" height="240" version="1.1" xmlns="http://www.w3.org/2000/svg" xmlns:xlink="http://www.w3.org/1999/xlink"><g transform="translate(30,10)"><g class="mark-group"><g transform="translate(0,0)"><rect class="background" width="400" height="200" style="fill: none;"></rect><g class="mark-group"><g transform="translate(0,200)"><rect class="background" width="0" height="0" style="pointer-events: none; fill: none;"></rect><g class="mark-rule" style="pointer-events: none;"></g><g class="mark-rule" style="pointer-events: none;"><line transform="translate(40.5,0)" x2="0" y2="6" style="fill: none; stroke: #000; stroke-width: 1; opacity: 1;"></line><line transform="translate(120.5,0)" x2="0" y2="6" style="fill: none; stroke: #000; stroke-width: 1; opacity: 1;"></line><line transform="translate(200.5,0)" x2="0" y2="6" style="fill: none; stroke: #000; stroke-width: 1; opacity: 1;"></line><line transform="translate(280.5,0)" x2="0" y2="6" style="fill: none; stroke: #000; stroke-width: 1; opacity: 1;"></line><line transform="translate(360.5,0)" x2="0" y2="6" style="fill: none; stroke: #000; stroke-width: 1; opacity: 1;"></line></g><g class="mark-rule" style="pointer-events: none;"></g><g class="mark-text"><text text-anchor="middle" transform="translate(40.5,19)" style="font: 11px sans-serif; fill: #fff; opacity: 1;">Apple</text><text text-anchor="middle" transform="translate(120.5,19)" style="font: 11px sans-serif; fill: #fff; opacity: 1;">Pandora</text><text text-anchor="middle" transform="translate(200.5,19)" style="font: 11px sans-serif; fill: #fff; opacity: 1;">Prime</text><text text-anchor="middle" transform="translate(280.5,19)" style="font: 11px sans-serif; fill: #fff; opacity: 1;">Spotify</text><text text-anchor="middle" transform="translate(360.5,19)" style="font: 11px sans-serif; fill: #fff; opacity: 1;">Google</text></g><g class="mark-path" style="pointer-events: none;"><path transform="translate(0.5,0.5)" d="M0,6V0H400V6" style="fill: none; stroke: #000; stroke-width: 1;"></path></g><g class="mark-text"></g></g></g><g class="mark-group"><g transform="translate(0,0)"><rect class="background" width="0" height="0" style="pointer-events: none; fill: none;"></rect><g class="mark-rule" style="pointer-events: none;"></g><g class="mark-rule" style="pointer-events: none;"><line transform="translate(-6,200.5)" x2="6" y2="0" style="fill: none; stroke: #000; stroke-width: 1; opacity: 1;"></line><line transform="translate(-6,180.5)" x2="6" y2="0" style="fill: none; stroke: #000; stroke-width: 1; opacity: 1;"></line><line transform="translate(-6,160.5)" x2="6" y2="0" style="fill: none; stroke: #000; stroke-width: 1; opacity: 1;"></line><line transform="translate(-6,140.5)" x2="6" y2="0" style="fill: none; stroke: #000; stroke-width: 1; opacity: 1;"></line><line transform="translate(-6,120.5)" x2="6" y2="0" style="fill: none; stroke: #000; stroke-width: 1; opacity: 1;"></line><line transform="translate(-6,100.5)" x2="6" y2="0" style="fill: none; stroke: #000; stroke-width: 1; opacity: 1;"></line><line transform="translate(-6,80.5)" x2="6" y2="0" style="fill: none; stroke: #000; stroke-width: 1; opacity: 1;"></line><line transform="translate(-6,60.50000000000001)" x2="6" y2="0" style="fill: none; stroke: #000; stroke-width: 1; opacity: 1;"></line><line transform="translate(-6,40.49999999999999)" x2="6" y2="0" style="fill: none; stroke: #000; stroke-width: 1; opacity: 1;"></line><line transform="translate(-6,20.499999999999996)" x2="6" y2="0" style="fill: none; stroke: #000; stroke-width: 1; opacity: 1;"></line><line transform="translate(-6,0.5)" x2="6" y2="0" style="fill: none; stroke: #000; stroke-width: 1; opacity: 1;"></line></g><g class="mark-rule" style="pointer-events: none;"></g><g class="mark-text"><text text-anchor="end" transform="translate(-9,203.5)" style="font: 11px sans-serif; fill: #000; opacity: 1;">0</text><text text-anchor="end" transform="translate(-9,183.5)" style="font: 11px sans-serif; fill: #fff; opacity: 1;">2</text><text text-anchor="end" transform="translate(-9,163.5)" style="font: 11px sans-serif; fill: #fff; opacity: 1;">4</text><text text-anchor="end" transform="translate(-9,143.5)" style="font: 11px sans-serif; fill: #fff; opacity: 1;">6</text><text text-anchor="end" transform="translate(-9,123.5)" style="font: 11px sans-serif; fill: #fff; opacity: 1;">8</text><text text-anchor="end" transform="translate(-9,103.5)" style="font: 11px sans-serif; fill: #fff; opacity: 1;">10</text><text text-anchor="end" transform="translate(-9,83.5)" style="font: 11px sans-serif; fill: #fff; opacity: 1;">12</text><text text-anchor="end" transform="translate(-9,63.50000000000001)" style="font: 11px sans-serif; fill: #fff; opacity: 1;">14</text><text text-anchor="end" transform="translate(-9,43.49999999999999)" style="font: 11px sans-serif; fill: #fff; opacity: 1;">16</text><text text-anchor="end" transform="translate(-9,23.499999999999996)" style="font: 11px sans-serif; fill: #fff; opacity: 1;">18</text><text text-anchor="end" transform="translate(-9,3.5)" style="font: 11px sans-serif; fill: #fff; opacity: 1;">20</text></g><g class="mark-path" style="pointer-events: none;"><path transform="translate(0.5,0.5)" d="M-6,0H0V200H-6" style="fill: none; stroke: #000; stroke-width: 1;"></path></g><g class="mark-text"></g></g></g><g class="mark-rect"><rect transform="translate(0,140)" width="79" height="60" style="fill: #1ED760;"></rect><rect transform="translate(80,120)" width="79" height="80" style="fill: #1ED760;"></rect><rect transform="translate(160,180)" width="79" height="20" style="fill: #1ED760;"></rect><rect transform="translate(240,0)" width="79" height="200" style="fill: #1ED760;"></rect><rect transform="translate(320,150)" width="79" height="50" style="fill: #1ED760;"></rect></g></g></g></g></svg>