<svg class="marks" width="235" height="228" version="1.1" xmlns="http://www.w3.org/2000/svg" xmlns:xlink="http://www.w3.org/1999/xlink"><g transform="translate(21,9)"><g class="mark-group"><g transform="translate(0,0)"><rect class="background" width="200" height="200" style="fill: none;"></rect><g class="mark-arc"><path transform="translate(100,100)" d="M6.123233995736766e-15,-100A100,100 0 0,1 79.52928712734266,-60.622541096663795L15.90585742546853,-12.124508219332759A20,20 0 0,0 1.2246467991473533e-15,-20Z" style="fill: #1ED760; stroke: #fff;"></path><path transform="translate(100,100)" d="M79.52928712734266,-60.622541096663795A100,100 0 0,1 99.3402089759675,11.46834253984007L19.868041795193502,2.2936685079680137A20,20 0 0,0 15.90585742546853,-12.124508219332759Z" style="fill: #1ED760; stroke: #fff;"></path><path transform="translate(100,100)" d="M99.3402089759675,11.46834253984007A100,100 0 0,1 22.785350890313726,97.36954238777791L4.557070178062745,19.473908477555582A20,20 0 0,0 19.868041795193502,2.2936685079680137Z" style="fill: #1ED760; stroke: #fff;"></path><path transform="translate(100,100)" d="M22.785350890313726,97.36954238777791A100,100 0 0,1 -7.654925283649576,99.70658011837405L-1.5309850567299153,19.94131602367481A20,20 0 0,0 4.557070178062745,19.473908477555582Z" style="fill: #1ED760; stroke: #fff;"></path><path transform="translate(100,100)" d="M-7.654925283649576,99.70658011837405A100,100 0 0,1 -1.8369701987210297e-14,-100L-3.673940397442059e-15,-20A20,20 0 0,0 -1.5309850567299153,19.94131602367481Z" style="fill: #1ED760; stroke: #fff;"></path></g><g class="mark-text"><text text-anchor="middle" transform="translate(147.92174248963167,6.2141198482060105)" style="font: 11px sans-serif; fill: #fff;">6</text><text text-anchor="middle" transform="translate(204.13937750893922,74.38199776276055)" style="font: 11px sans-serif; fill: #fff;">5</text><text text-anchor="middle" transform="translate(180.62774793409193,174.8551756178811)" style="font: 11px sans-serif; fill: #fff;">8</text><text text-anchor="middle" transform="translate(108.2673193063415,210.68310652784396)" style="font: 11px sans-serif; fill: #fff;">2</text><text text-anchor="middle" transform="translate(-7.920747553487473,98.86330476147619)" style="font: 11px sans-serif; fill: #fff;">20</text></g></g></g></g></svg>